# xmcd
#
# Track frame offsets: 
#        150
#        14264
#        31185
#        46785
#        60163
#        72147
#        87349
#        104646
#        121685
#        137146
#        152031
#        167923
#        185007
#        199980
#
# Disc length: 2872 seconds
#
# Revision: 0
# Processed by: cddbd v1.5.2PL0 Copyright (c) Steve Scherf et al.
# Submitted via: ExactAudioCopyFreeDBPlugin 1.0
#
DISCID=b70b360e
DTITLE=Jordan Pruitt - No Ordinary Girl [Bonus Tracks]
DYEAR=1900
DGENRE=
TTITLE0=No Ordinary Girl
TTITLE1=Miss Popularity
TTITLE2=Over It
TTITLE3=Teenager
TTITLE4=Outside Looking In
TTITLE5=We Are Family
TTITLE6=Waiting For You
TTITLE7=Jump To The Rhythm
TTITLE8=My Reality
TTITLE9=Who Likes Who
TTITLE10=Later
TTITLE11=When I Pretend
TTITLE12=Whatever
TTITLE13=Waiting For The Weekend
EXTD=
EXTT0=
EXTT1=
EXTT2=
EXTT3=
EXTT4=
EXTT5=
EXTT6=
EXTT7=
EXTT8=
EXTT9=
EXTT10=
EXTT11=
EXTT12=
EXTT13=
PLAYORDER=
